<?xml version="1.0" encoding="UTF-8" standalone="no"?>
<svg
   xmlns:dc="http://purl.org/dc/elements/1.1/"
   xmlns:cc="http://creativecommons.org/ns#"
   xmlns:rdf="http://www.w3.org/1999/02/22-rdf-syntax-ns#"
   xmlns:svg="http://www.w3.org/2000/svg"
   xmlns="http://www.w3.org/2000/svg"
   xmlns:sodipodi="http://sodipodi.sourceforge.net/DTD/sodipodi-0.dtd"
   xmlns:inkscape="http://www.inkscape.org/namespaces/inkscape"
   width="266.93442mm"
   height="42.982502mm"
   viewBox="0 0 266.93442 42.982502"
   version="1.1"
   id="svg335"
   inkscape:version="1.0.2-2 (e86c870879, 2021-01-15)"
   sodipodi:docname="scrimba black.svg">
  <defs
     id="defs329" />
  <sodipodi:namedview
     id="base"
     pagecolor="#ffffff"
     bordercolor="#666666"
     borderopacity="1.0"
     inkscape:pageopacity="0.0"
     inkscape:pageshadow="2"
     inkscape:zoom="0.175"
     inkscape:cx="-729.68594"
     inkscape:cy="325.39163"
     inkscape:document-units="px"
     inkscape:current-layer="layer1"
     inkscape:document-rotation="0"
     showgrid="false"
     fit-margin-top="0"
     fit-margin-left="0"
     fit-margin-right="0"
     fit-margin-bottom="0"
     inkscape:window-width="1566"
     inkscape:window-height="1208"
     inkscape:window-x="2292"
     inkscape:window-y="135"
     inkscape:window-maximized="0" />
  <metadata
     id="metadata332">
    <rdf:RDF>
      <cc:Work
         rdf:about="">
        <dc:format>image/svg+xml</dc:format>
        <dc:type
           rdf:resource="http://purl.org/dc/dcmitype/StillImage" />
        <dc:title></dc:title>
      </cc:Work>
    </rdf:RDF>
  </metadata>
  <g
     inkscape:label="Layer 1"
     inkscape:groupmode="layer"
     id="layer1"
     transform="translate(51.824714,-112.31227)">
    <g
       transform="matrix(4.5990756,0,0,4.5990756,20684.72,11723.701)"
       id="g2701"
       style="display:inline;fill:#1a1a1a"
       inkscape:export-xdpi="400"
       inkscape:export-ydpi="400">
      <rect
         style="opacity:1;fill:#1a1a1a;fill-opacity:1;stroke-width:0.022289"
         id="rect2677"
         width="5.9425898"
         height="2.0343661"
         x="-4503.7969"
         y="-2522.071"
         ry="0.9015938" />
      <rect
         style="opacity:1;fill:#1a1a1a;fill-opacity:1;stroke-width:0.0161201"
         id="rect2679"
         width="3.5844188"
         height="1.7641767"
         x="-4503.7969"
         y="-2519.6648"
         ry="0.78185087" />
      <rect
         ry="0.9015938"
         y="-2517.5288"
         x="-4506.1553"
         height="2.0343661"
         width="5.9425898"
         id="rect2681"
         style="opacity:1;fill:#1a1a1a;fill-opacity:1;stroke-width:0.022289" />
      <rect
         ry="0.90158898"
         y="-2517.5288"
         x="-4508.8506"
         height="2.0343549"
         width="2.0639262"
         id="rect2683"
         style="opacity:1;fill:#1a1a1a;fill-opacity:1;stroke-width:0.0131355" />
      <g
         id="g2699"
         style="fill:#1a1a1a;fill-opacity:1">
        <path
           d="m -4495.7407,-2517.1813 c 0.2101,1.2733 1.4587,1.8049 2.9174,1.8049 1.6318,0 2.8186,-0.717 2.8186,-2.0893 0,-0.9148 -0.5439,-1.6194 -1.7184,-1.8667 l -1.4587,-0.2967 c -0.3957,-0.086 -0.4698,-0.2596 -0.4698,-0.4326 0,-0.2226 0.1731,-0.4822 0.7047,-0.4822 0.6057,0 0.9766,0.3462 1.0384,0.7294 l 1.8049,-0.3585 c -0.2472,-1.0756 -1.2733,-1.7801 -2.8186,-1.7801 -1.57,0 -2.6702,0.8282 -2.6702,2.1016 0,0.9766 0.6552,1.5947 1.8049,1.8047 l 1.2609,0.2474 c 0.4573,0.086 0.6181,0.2472 0.6181,0.4573 0,0.2721 -0.2844,0.4945 -0.8035,0.4945 -0.5316,0 -1.0137,-0.1978 -1.1002,-0.7294 z"
           style="font-style:normal;font-variant:normal;font-weight:700;font-size:100.503px;line-height:125%;font-family:'Galano Grotesque DEMO';text-align:start;letter-spacing:0px;word-spacing:0px;text-anchor:start;fill:#1a1a1a;fill-opacity:1;stroke:none;stroke-width:0.257547"
           id="path2685"
           inkscape:connector-curvature="0" />
        <path
           d="m -4486.5156,-2517.1072 c -0.8901,0 -1.4835,-0.6428 -1.4835,-1.5576 0,-0.9025 0.5934,-1.5577 1.4835,-1.5577 0.6304,0 1.1373,0.3462 1.3103,1.1003 l 1.8544,-0.4451 c -0.3462,-1.4587 -1.6565,-2.3858 -3.1647,-2.3858 -1.8544,0 -3.3874,1.3351 -3.3874,3.2883 0,1.9656 1.533,3.2884 3.3874,3.2884 1.5452,0 2.8556,-0.9519 3.1647,-2.423 l -1.8173,-0.3956 c -0.2101,0.7541 -0.717,1.0878 -1.3474,1.0878 z"
           style="font-style:normal;font-variant:normal;font-weight:700;font-size:100.503px;line-height:125%;font-family:'Galano Grotesque DEMO';text-align:start;letter-spacing:0px;word-spacing:0px;text-anchor:start;fill:#1a1a1a;fill-opacity:1;stroke:none;stroke-width:0.257547"
           id="path2687"
           inkscape:connector-curvature="0" />
        <path
           d="m -4478.9516,-2521.8543 c -1.0137,0 -1.6938,0.5316 -2.1387,1.2733 v -1.1867 h -1.978 v 6.2059 h 1.978 v -1.941 c 0,-1.607 0.7541,-2.324 2.1387,-2.324 h 0.3584 l 0.086,-1.978 c -0.1484,-0.037 -0.272,-0.049 -0.445,-0.049 z"
           style="font-style:normal;font-variant:normal;font-weight:700;font-size:100.503px;line-height:125%;font-family:'Galano Grotesque DEMO';text-align:start;letter-spacing:0px;word-spacing:0px;text-anchor:start;fill:#1a1a1a;fill-opacity:1;stroke:none;stroke-width:0.257547"
           id="path2689"
           inkscape:connector-curvature="0" />
        <path
           d="m -4477.0867,-2524.7223 c -0.6675,0 -1.1373,0.5192 -1.1373,1.1249 0,0.6306 0.4698,1.1003 1.1373,1.1003 0.6676,0 1.1497,-0.4697 1.1497,-1.1003 0,-0.6057 -0.4821,-1.1249 -1.1497,-1.1249 z m 0.9889,9.1605 v -6.2059 h -1.9779 v 6.2059 z"
           style="font-style:normal;font-variant:normal;font-weight:700;font-size:100.503px;line-height:125%;font-family:'Galano Grotesque DEMO';text-align:start;letter-spacing:0px;word-spacing:0px;text-anchor:start;fill:#1a1a1a;fill-opacity:1;stroke:none;stroke-width:0.257547"
           id="path2691"
           inkscape:connector-curvature="0" />
        <path
           d="m -4467.619,-2521.9531 c -0.9642,0 -1.7059,0.4078 -2.2004,1.0507 -0.4203,-0.6799 -1.162,-1.0507 -2.0275,-1.0507 -0.8035,0 -1.4092,0.2842 -1.8295,0.754 v -0.5686 h -1.978 v 6.2059 h 1.978 v -3.0412 c 0,-1.0384 0.4698,-1.57 1.1868,-1.57 0.5933,0 1.0507,0.4451 1.0507,1.1497 v 3.4615 h 1.978 v -3.0412 c 0,-1.0384 0.4822,-1.57 1.2115,-1.57 0.5811,0 1.0384,0.4451 1.0384,1.1497 v 3.4615 h 1.9657 v -3.8819 c 0,-1.5082 -1.0509,-2.5094 -2.3737,-2.5094 z"
           style="font-style:normal;font-variant:normal;font-weight:700;font-size:100.503px;line-height:125%;font-family:'Galano Grotesque DEMO';text-align:start;letter-spacing:0px;word-spacing:0px;text-anchor:start;fill:#1a1a1a;fill-opacity:1;stroke:none;stroke-width:0.257547"
           id="path2693"
           inkscape:connector-curvature="0" />
        <path
           d="m -4461.0562,-2521.9531 c -0.8037,0 -1.4464,0.2472 -1.9286,0.6799 v -3.1895 h -1.9779 v 8.9009 h 1.9779 v -0.4946 c 0.4822,0.4328 1.1249,0.68 1.9286,0.68 1.6441,0 3.0287,-1.3228 3.0287,-3.2884 0,-1.9532 -1.3846,-3.2883 -3.0287,-3.2883 z m -0.408,4.8954 c -0.8035,0 -1.5206,-0.6429 -1.5206,-1.6071 0,-0.952 0.7171,-1.607 1.5206,-1.607 0.8653,0 1.4958,0.655 1.4958,1.607 0,0.9642 -0.6305,1.6071 -1.4958,1.6071 z"
           style="font-style:normal;font-variant:normal;font-weight:700;font-size:100.503px;line-height:125%;font-family:'Galano Grotesque DEMO';text-align:start;letter-spacing:0px;word-spacing:0px;text-anchor:start;fill:#1a1a1a;fill-opacity:1;stroke:none;stroke-width:0.257547"
           id="path2695"
           inkscape:connector-curvature="0" />
        <path
           d="m -4450.8097,-2521.7677 h -1.978 v 0.4945 c -0.4821,-0.4327 -1.1249,-0.6799 -1.9285,-0.6799 -1.6441,0 -3.0287,1.3351 -3.0287,3.2883 0,1.9656 1.3846,3.2884 3.0287,3.2884 0.8036,0 1.4464,-0.2472 1.9285,-0.68 v 0.4946 h 1.978 z m -3.4985,4.71 c -0.8653,0 -1.4959,-0.6429 -1.4959,-1.6071 0,-0.952 0.6306,-1.607 1.4959,-1.607 0.8035,0 1.5205,0.655 1.5205,1.607 0,0.9642 -0.717,1.6071 -1.5205,1.6071 z"
           style="font-style:normal;font-variant:normal;font-weight:700;font-size:100.503px;line-height:125%;font-family:'Galano Grotesque DEMO';text-align:start;letter-spacing:0px;word-spacing:0px;text-anchor:start;fill:#1a1a1a;fill-opacity:1;stroke:none;stroke-width:0.257547"
           id="path2697"
           inkscape:connector-curvature="0" />
      </g>
    </g>
  </g>
</svg>
